<?xml version="1.0" encoding="UTF-8"?>
<svg id="Layer_1" data-name="Layer 1" xmlns="http://www.w3.org/2000/svg" viewBox="0 0 10 10">
  <path d="M.502,0H9.504c.272,0,.496,.224,.496,.502V9.504c0,.272-.224,.496-.496,.496H.502C.224,10,0,9.776,0,9.504V.502C0,.224,.224,0,.502,0H.502ZM5.647,2.995c-1.441,0-2.605,1.169-2.605,2.605s1.164,2.605,2.605,2.605,2.605-1.164,2.605-2.605c0-.153-.018-.307-.042-.461-.218,.284-.555,.461-.933,.461-.656,0-1.182-.531-1.182-1.181,0-.514,.325-.951,.78-1.116-.367-.195-.786-.307-1.229-.307h0Zm-3.438,2.457c0-1.79,1.453-3.243,3.243-3.243,1.719,0,3.125,1.335,3.237,3.024,.006-.077,.012-.154,.012-.23,0-2.044-1.66-3.698-3.698-3.698S1.305,2.959,1.305,5.003s1.654,3.698,3.698,3.698c.077,0,.154-.006,.231-.012-1.689-.112-3.024-1.518-3.024-3.237h0Z" style="fill: #ffba00; fill-rule: evenodd;"/>
</svg>