<?xml version="1.0" ?><!DOCTYPE svg  PUBLIC '-//W3C//DTD SVG 1.1//EN'  'http://www.w3.org/Graphics/SVG/1.1/DTD/svg11.dtd'><svg height="100%" id="Layer_1" version="1.1" viewBox="0 0 512 512" width="100%" xml:space="preserve" xmlns="http://www.w3.org/2000/svg" xmlns:xlink="http://www.w3.org/1999/xlink"><g><path clip-rule="evenodd" d="M25.701,0h460.897C500.509,0,512,11.492,512,25.707v460.892   c0,13.91-11.491,25.401-25.401,25.401H25.701C11.492,512,0,500.509,0,486.599V25.707C0,11.492,11.492,0,25.701,0L25.701,0z    M289.111,153.329c-73.787,0-133.364,59.877-133.364,133.363c0,73.797,59.577,133.374,133.364,133.374   c73.497,0,133.373-59.577,133.373-133.374c0-7.854-0.909-15.718-2.129-23.582c-11.182,14.52-28.419,23.582-47.765,23.582   c-33.586,0-60.496-27.21-60.496-60.481c0-26.311,16.638-48.69,39.931-57.159C333.259,159.075,311.805,153.329,289.111,153.329   L289.111,153.329z M113.108,279.139c0-91.634,74.386-166.036,166.02-166.036c88.007,0,159.975,68.351,165.72,154.843   c0.311-3.927,0.62-7.864,0.62-11.792c0-104.639-84.988-189.318-189.323-189.318c-104.634,0-189.313,84.679-189.313,189.318   c0,104.334,84.679,189.313,189.313,189.313c3.927,0,7.864-0.3,11.802-0.599C181.449,439.123,113.108,367.145,113.108,279.139   L113.108,279.139z" fill="#FFBA00" fill-rule="evenodd"/></g></svg>